<svg xmlns="http://www.w3.org/2000/svg" viewBox="0 0 64 64" width="64px" height="64px"><linearGradient id="vV2GSxguAINIluo3FvNF4a" x1="32" x2="32" y1="9.083" y2="54.676" gradientUnits="userSpaceOnUse" spreadMethod="reflect"><stop offset="0" stop-color="#1a6dff"/><stop offset="1" stop-color="#c822ff"/></linearGradient><path fill="url(#vV2GSxguAINIluo3FvNF4a)" d="M50,55H14c-2.757,0-5-2.243-5-5V14c0-2.757,2.243-5,5-5h36c2.757,0,5,2.243,5,5v36 C55,52.757,52.757,55,50,55z M14,11c-1.654,0-3,1.346-3,3v36c0,1.654,1.346,3,3,3h36c1.654,0,3-1.346,3-3V14c0-1.654-1.346-3-3-3H14 z"/><linearGradient id="vV2GSxguAINIluo3FvNF4b" x1="25.5" x2="25.5" y1="21" y2="44" gradientUnits="userSpaceOnUse" spreadMethod="reflect"><stop offset="0" stop-color="#6dc7ff"/><stop offset="1" stop-color="#e6abff"/></linearGradient><path fill="url(#vV2GSxguAINIluo3FvNF4b)" d="M23,21c-2.209,0-4,1.791-4,4v18c0,0.552,0.448,1,1,1h2c0.552,0,1-0.448,1-1v-7h5 c2.209,0,4-1.791,4-4v-7c0-2.209-1.791-4-4-4H23z M23,31v-5c0-0.552,0.448-1,1-1h3c0.552,0,1,0.448,1,1v5c0,0.552-0.448,1-1,1h-3 C23.448,32,23,31.552,23,31z"/><linearGradient id="vV2GSxguAINIluo3FvNF4c" x1="40.5" x2="40.5" y1="26" y2="44" gradientUnits="userSpaceOnUse" spreadMethod="reflect"><stop offset="0" stop-color="#6dc7ff"/><stop offset="1" stop-color="#e6abff"/></linearGradient><path fill="url(#vV2GSxguAINIluo3FvNF4c)" d="M45,26h-1.764c-1.47,0-2.921,0.342-4.236,1c0-0.552-0.448-1-1-1h-2c-0.552,0-1,0.448-1,1v16 c0,0.552,0.448,1,1,1h2c0.552,0,1-0.448,1-1V31l0,0c1.315-0.658,2.766-1,4.236-1H45c0.552,0,1-0.448,1-1v-2 C46,26.448,45.552,26,45,26z"/></svg>