<?xml version="1.0" standalone="no"?>
<!DOCTYPE svg PUBLIC "-//W3C//DTD SVG 20010904//EN"
 "http://www.w3.org/TR/2001/REC-SVG-20010904/DTD/svg10.dtd">
<svg version="1.0" xmlns="http://www.w3.org/2000/svg"
 width="512.000000pt" height="512.000000pt" viewBox="0 0 512.000000 512.000000"
 preserveAspectRatio="xMidYMid meet">
<metadata>
Created by potrace 1.11, written by Peter Selinger 2001-2013
</metadata>
<g transform="translate(0.000000,512.000000) scale(0.100000,-0.100000)"
fill="#000000" stroke="none">
<path d="M1990 5105 c-316 -70 -626 -201 -886 -374 -389 -259 -681 -591 -884
-1006 -94 -191 -139 -311 -186 -491 l-34 -135 0 -510 0 -510 30 -119 c45 -177
93 -306 185 -495 254 -521 653 -922 1170 -1175 191 -94 312 -140 489 -185 626
-159 1246 -92 1817 196 248 126 463 282 659 479 502 506 774 1201 747 1905
-38 949 -583 1789 -1432 2205 -184 90 -296 134 -486 187 l-134 37 -495 2
c-399 2 -508 0 -560 -11z m651 -866 c58 -13 166 -58 208 -88 54 -39 200 -109
240 -116 57 -9 86 -47 107 -141 26 -121 17 -213 -33 -316 -23 -45 -66 -114
-97 -153 -166 -209 -177 -237 -133 -335 21 -46 149 -211 191 -245 28 -23 125
-160 168 -237 60 -110 145 -360 238 -706 30 -112 54 -162 102 -214 91 -96 230
-79 365 46 79 73 137 161 238 361 95 189 126 242 179 313 42 57 139 132 195
151 113 38 194 -30 208 -173 25 -267 -239 -735 -568 -1007 -42 -35 -43 -37
-30 -62 34 -64 -53 -108 -247 -126 -153 -14 -219 -36 -272 -91 l-40 -42 0 -82
c0 -74 -20 -260 -35 -333 -22 -101 -96 -182 -154 -169 -34 9 -39 9 -84 0 -31
-5 -44 -3 -67 15 -16 11 -40 21 -54 21 -32 0 -56 34 -56 82 0 45 -12 54 -125
93 -44 15 -89 34 -100 41 -33 24 -63 16 -111 -28 l-46 -43 6 -76 c3 -42 3 -84
0 -93 -10 -25 -52 -19 -118 18 -48 27 -65 32 -80 24 -31 -17 -84 0 -129 44
-67 64 -123 74 -203 33 -94 -49 -170 -74 -270 -89 -126 -20 -157 -20 -214 0
-71 25 -78 54 -27 109 l32 36 54 -16 c45 -14 65 -15 117 -6 73 13 143 41 163
65 12 15 11 20 -7 44 -12 15 -31 43 -42 63 -23 43 -57 76 -125 121 -28 19 -58
48 -67 68 -27 53 -23 210 10 366 11 53 45 123 95 199 22 33 55 82 74 110 71
107 93 223 93 501 0 172 4 231 30 400 34 229 32 274 -11 305 -28 20 -31 20
-80 4 -28 -10 -121 -51 -207 -92 -189 -91 -394 -175 -479 -197 -89 -22 -147
-55 -233 -130 -41 -36 -83 -66 -94 -66 -10 0 -34 -9 -52 -21 -34 -21 -144
-136 -144 -151 0 -18 -28 -6 -34 15 -26 97 7 202 163 516 93 188 101 232 55
278 -20 20 -31 24 -57 19 -36 -7 -155 -63 -204 -96 l-33 -22 0 24 c0 52 93
212 180 311 76 85 234 215 301 245 75 34 113 70 130 119 17 51 4 94 -52 169
-27 37 -48 75 -47 83 3 12 19 17 71 19 77 3 93 19 58 56 -11 12 -21 31 -21 41
0 16 7 17 78 12 107 -8 270 9 377 39 50 14 157 55 238 91 82 35 181 73 220 83
82 22 220 26 298 9z"/>
<path d="M2735 4013 c-26 -7 -54 -32 -71 -65 -13 -26 -20 -148 -8 -148 3 0 14
10 24 23 15 18 22 20 37 11 24 -15 28 -48 7 -68 -15 -15 -18 -15 -40 -1 -13 8
-26 15 -30 15 -4 0 -4 -32 -2 -72 7 -90 20 -103 83 -83 53 16 164 76 187 102
26 30 59 103 52 115 -22 35 -134 143 -166 159 -39 20 -40 20 -73 12z"/>
<path d="M3113 3888 c-23 -30 -22 -37 12 -57 l35 -20 0 32 c0 46 -27 71 -47
45z"/>
<path d="M2985 2238 c-4 -9 -5 -25 -3 -35 4 -17 5 -16 15 3 7 12 8 26 3 34 -7
12 -10 12 -15 -2z"/>
</g>
</svg>
