<?xml version="1.0" encoding="utf-8"?>
<!-- Generator: Adobe Illustrator 24.0.1, SVG Export Plug-In . SVG Version: 6.00 Build 0)  -->
<svg version="1.1" id="Layer_1" xmlns="http://www.w3.org/2000/svg" xmlns:xlink="http://www.w3.org/1999/xlink" x="0px" y="0px"
	 viewBox="0 0 64 64" style="enable-background:new 0 0 64 64;" xml:space="preserve">
<style type="text/css">
	.st0{fill:url(#SVGID_1_);stroke:#020202;stroke-miterlimit:10;}
	.st1{fill:#4337C2;stroke:#000000;stroke-miterlimit:10;}
	.st2{stroke:#000000;stroke-miterlimit:10;}
	.st3{fill:url(#SVGID_2_);stroke:url(#SVGID_3_);stroke-miterlimit:10;}
	.st4{fill:url(#SVGID_4_);stroke:url(#SVGID_5_);stroke-miterlimit:10;}
	.st5{fill:url(#SVGID_6_);stroke:url(#SVGID_7_);stroke-miterlimit:10;}
</style>
<linearGradient id="SVGID_1_" gradientUnits="userSpaceOnUse" x1="6.9972" y1="31.7604" x2="58.7285" y2="31.7604">
	<stop  offset="6.073680e-07" style="stop-color:#4846FF"/>
	<stop  offset="1" style="stop-color:#010077"/>
</linearGradient>
<rect x="7" y="5.89" class="st0" width="51.73" height="51.73"/>
<path class="st1" d="M42.46,32.22c-0.54-0.11-0.93-0.3-1.13-0.41c-1.06-0.55-1.63-1.36-2.1-2.06c-0.37-0.55-1.06-1.57-1.38-3.13
	c-0.22-1.09-0.12-1.91,0.08-3.54c0.26-2.15,0.75-3.76,0.97-4.45c0.48-1.48,0.83-2.55,1.7-3.79c0.5-0.71,0.98-1.39,1.86-1.98
	c1.75-1.16,3.66-0.99,4.53-0.91c0.54,0.05,1.57,0.2,2.75,0.74c0.71,0.33,2.05,0.96,3.08,2.39c1.19,1.65,1.3,3.44,1.38,4.69
	c0.03,0.55-0.02,0.31-0.08,2.47c-0.09,3.22,0.03,3.52-0.24,4.36c-0.51,1.55-1.58,2.49-1.94,2.8c-0.94,0.81-2,1.14-4.13,1.81
	c-0.07,0.02-0.91,0.23-2.59,0.66C43.92,32.22,43.25,32.38,42.46,32.22z"/>
<path class="st1" d="M30.48,21.64c0.22-0.57,0.29-1.22,0.42-2.52c0.19-1.88,0.33-3.26-0.08-4.88c-0.27-1.05-0.62-2.45-1.85-3.53
	c-1.86-1.64-4.36-1.33-4.88-1.26c-3.8,0.48-5.65,3.98-5.72,4.12c-0.68,1.35-0.71,2.86-0.76,5.89c-0.02,1.31,0.1,2.16,0.34,3.87
	c0.24,1.69,0.43,2.2,0.84,2.61c0.7,0.69,1.67,0.73,2.61,0.76c0.67,0.02,2.57,0,4.88-1.18C27.59,24.83,29.62,23.8,30.48,21.64z"/>
<path class="st1" d="M28.47,41.2c0.35,0.33,0.91,0.81,1.67,1.3c1.08,0.69,1.62,0.81,2.27,1.43c0.27,0.26,0.54,0.61,1.01,1.85
	c0.21,0.55,0.86,2.33,1.35,5.55c0.2,1.33,0.26,2.15,0.17,3.11c-0.06,0.63-0.16,1.15-0.25,1.51"/>
<path class="st2" d="M35.78,48.14c0,0,1.64-0.07,2.19-0.08c1.35-0.04,2.11,0.1,4.21,0.34c2.31,0.26,3.47,0.4,4.21,0.42
	c2.84,0.09,5.17-0.43,6.23-0.67c3.41-0.79,4.27-1.69,5.13-1.09c1.26,0.87,1.21,4.04-0.25,5.22c-0.58,0.46-1.07,0.38-3.2,0.42
	c-2.75,0.05-5,0.24-7.07,0.42c-1.6,0.14-2.3,0.25-4.04,0.34c-2.01,0.1-2.84,0.04-3.28,0c-0.9-0.08-1.05-0.17-1.77-0.17
	c-1.02,0.01-1.43,0.19-1.94-0.08c-0.39-0.21-0.56-0.54-0.84-1.09c-0.3-0.59-0.77-1.5-0.5-2.44C35.07,48.89,35.78,48.14,35.78,48.14z
	"/>
<g>
	<g>
		<path d="M40.32,26.65c-0.88,0.55-1.47,1.55-1.42,2.61c0.05,1.02,0.64,2,1.57,2.45c0.58,0.29,1.21,0.4,1.85,0.26
			c0.64-0.14,1.12-0.59,1.47-1.13c0.57-0.88,0.69-1.99,0.46-3c-0.16-0.73-0.94-1.17-1.65-1.07c-0.77,0.1-1.25,0.72-1.3,1.47
			c-0.07,1.05,0.36,2.03,1.01,2.82c0.55,0.68,1.44,1.23,2.31,1.35c0.42,0.06,0.77,0.07,1.16-0.15c0.31-0.18,0.61-0.54,0.69-0.9
			c0.09-0.38,0.07-0.81-0.15-1.16c-0.2-0.3-0.52-0.64-0.9-0.69c-0.21-0.03-0.42-0.08-0.62-0.17c0.12,0.05,0.24,0.1,0.36,0.15
			c-0.2-0.09-0.38-0.19-0.55-0.32c0.1,0.08,0.2,0.16,0.3,0.23c-0.19-0.15-0.35-0.31-0.5-0.5c0.08,0.1,0.16,0.2,0.23,0.3
			c-0.14-0.19-0.26-0.39-0.36-0.61c0.05,0.12,0.1,0.24,0.15,0.36c-0.08-0.2-0.14-0.4-0.17-0.61c0.02,0.13,0.04,0.27,0.05,0.4
			c-0.02-0.17-0.03-0.34-0.02-0.51c-0.98,0.13-1.96,0.27-2.95,0.4c0.02,0.08,0.03,0.15,0.04,0.23c-0.02-0.13-0.04-0.27-0.05-0.4
			c0.03,0.21,0.03,0.41,0.01,0.61c0.02-0.13,0.04-0.27,0.05-0.4c-0.03,0.23-0.09,0.45-0.18,0.67c0.05-0.12,0.1-0.24,0.15-0.36
			c-0.07,0.16-0.16,0.31-0.26,0.45c0.08-0.1,0.16-0.2,0.23-0.3c-0.06,0.07-0.12,0.14-0.19,0.2c0.1-0.08,0.2-0.16,0.3-0.23
			c-0.04,0.03-0.08,0.05-0.12,0.07c0.12-0.05,0.24-0.1,0.36-0.15c-0.07,0.03-0.14,0.05-0.22,0.06c0.13-0.02,0.27-0.04,0.4-0.05
			c-0.1,0.01-0.19,0.01-0.29-0.01c0.13,0.02,0.27,0.04,0.4,0.05c-0.11-0.02-0.21-0.05-0.31-0.09c0.12,0.05,0.24,0.1,0.36,0.15
			c-0.12-0.05-0.23-0.12-0.34-0.19c0.1,0.08,0.2,0.16,0.3,0.23c-0.1-0.08-0.19-0.17-0.27-0.28c0.08,0.1,0.16,0.2,0.23,0.3
			c-0.06-0.09-0.12-0.18-0.17-0.28c0.05,0.12,0.1,0.24,0.15,0.36c-0.05-0.12-0.08-0.24-0.1-0.37c0.02,0.13,0.04,0.27,0.05,0.4
			c-0.01-0.11-0.01-0.21,0-0.32c-0.02,0.13-0.04,0.27-0.05,0.4c0.02-0.13,0.05-0.25,0.1-0.38c-0.05,0.12-0.1,0.24-0.15,0.36
			c0.05-0.12,0.11-0.23,0.19-0.34c-0.08,0.1-0.16,0.2-0.23,0.3c0.08-0.1,0.17-0.19,0.27-0.27c-0.1,0.08-0.2,0.16-0.3,0.23
			c0.03-0.03,0.07-0.05,0.11-0.07c0.66-0.42,0.99-1.36,0.54-2.05C41.95,26.53,41.03,26.21,40.32,26.65L40.32,26.65z"/>
	</g>
</g>
<g>
	<g>
		<path d="M38.87,18.36c-0.22,2,2.06,2.74,3.6,2.9c1.72,0.18,3.43-0.21,4.97-0.97c1.32-0.66,0.7-2.88-0.76-2.8
			c-0.78,0.04-1.56,0.09-2.34,0.03c-0.68-0.05-1.32-0.33-1.99-0.44c-0.79-0.13-1.58-0.11-2.3,0.28c-0.37,0.2-0.68,0.48-0.92,0.82
			c-0.06,0.09-0.12,0.17-0.17,0.27c-0.06,0.14-0.12,0.29-0.18,0.43c-0.1,0.25,0.01,0.12,0.32-0.38c-1.18,0.55-0.84,2.46,0.36,2.74
			c2.73,0.65,5.29-0.31,7.92-0.95c0.56-0.14,1.12-0.26,1.69-0.31c0.66-0.05,1.29,0.02,1.95,0.04c1.57,0.04,3.25-0.95,3.17-2.7
			c-0.03-0.7-0.45-1.22-1.1-1.45c-1.64-0.56-3.23,0.15-4.82,0.52c-1.49,0.34-3,0.44-4.53,0.36c0,1,0,2,0,3
			c2.95-0.03,5.82-0.77,8.44-2.14c1.71-0.9,0.19-3.49-1.51-2.59c-2.14,1.13-4.5,1.71-6.92,1.73c-1.94,0.02-1.92,2.9,0,3
			c1.55,0.08,3.1-0.03,4.63-0.32c0.69-0.13,1.37-0.31,2.05-0.51c0.63-0.18,1.22-0.37,1.86-0.15c-0.37-0.48-0.73-0.96-1.1-1.45
			c0-0.07,0.18-0.36,0.21-0.32c-0.01-0.01-0.65,0-0.72,0c-0.5-0.03-1-0.06-1.5-0.03c-1.09,0.08-2.17,0.31-3.22,0.58
			c-1.83,0.48-3.79,1.24-5.7,0.79c0.12,0.91,0.24,1.83,0.36,2.74c0.34-0.16,0.61-0.45,0.79-0.77c0.08-0.14,0.19-0.34,0.21-0.5
			c0.02-0.11,0.01-0.01-0.09,0.1c-0.2,0.21-0.17,0.05-0.01,0.07c-0.16-0.02,0.04,0,0.09,0c0.29,0.02,0.57,0.13,0.85,0.2
			c1.39,0.39,2.8,0.38,4.23,0.3c-0.25-0.93-0.5-1.86-0.76-2.8c-0.8,0.4-1.69,0.61-2.59,0.61c-0.44,0-0.89-0.02-1.32-0.14
			c-0.22-0.06-0.05-0.04-0.28-0.1c-0.17-0.09-0.2-0.11-0.09-0.07c0.14,0.58,0.21,0.7,0.22,0.36c0.09-0.81-0.75-1.5-1.5-1.5
			C39.48,16.86,38.96,17.55,38.87,18.36L38.87,18.36z"/>
	</g>
</g>
<g>
	<g>
		<path d="M40.38,26.61c-0.06-0.02-0.12-0.04-0.18-0.06c0.12,0.05,0.24,0.1,0.36,0.15c-0.13-0.06-0.25-0.13-0.36-0.21
			c0.1,0.08,0.2,0.16,0.3,0.23c-0.11-0.09-0.21-0.18-0.29-0.3c0.08,0.1,0.16,0.2,0.23,0.3c-0.05-0.07-0.1-0.15-0.14-0.23
			c-0.09-0.17-0.22-0.32-0.39-0.42c-0.14-0.13-0.31-0.22-0.51-0.27c-0.2-0.06-0.4-0.07-0.6-0.03c-0.2,0.01-0.39,0.07-0.56,0.18
			c-0.1,0.08-0.2,0.16-0.3,0.23c-0.19,0.19-0.31,0.41-0.39,0.66c-0.02,0.13-0.04,0.27-0.05,0.4c0,0.27,0.07,0.52,0.2,0.76
			c0.11,0.21,0.27,0.39,0.41,0.57c0.07,0.09,0.15,0.17,0.24,0.24c0.18,0.14,0.36,0.3,0.57,0.41c0.21,0.11,0.43,0.21,0.66,0.27
			c0.2,0.06,0.4,0.07,0.6,0.03c0.2-0.01,0.39-0.07,0.56-0.18c0.17-0.09,0.32-0.22,0.42-0.39c0.13-0.14,0.22-0.31,0.27-0.51
			c0.02-0.13,0.04-0.27,0.05-0.4c0-0.27-0.07-0.52-0.2-0.76c-0.08-0.1-0.16-0.2-0.23-0.3C40.85,26.81,40.63,26.69,40.38,26.61
			L40.38,26.61z"/>
	</g>
</g>
<g>
	<g>
		<path d="M37.65,22.03c0.01,0.07,0.02,0.15,0.03,0.22c-0.02-0.13-0.04-0.27-0.05-0.4c0.11,0.87,0.11,1.75,0,2.62
			c0.02-0.13,0.04-0.27,0.05-0.4c-0.05,0.37-0.12,0.74-0.21,1.1c-0.1,0.38-0.05,0.81,0.15,1.16c0.18,0.31,0.54,0.61,0.9,0.69
			c0.78,0.18,1.64-0.23,1.85-1.05c0.19-0.77,0.31-1.57,0.34-2.36c0.04-0.8-0.04-1.59-0.16-2.38c-0.05-0.35-0.4-0.73-0.69-0.9
			c-0.32-0.19-0.8-0.27-1.16-0.15c-0.36,0.12-0.71,0.34-0.9,0.69c-0.05,0.12-0.1,0.24-0.15,0.36C37.58,21.5,37.58,21.76,37.65,22.03
			L37.65,22.03z"/>
	</g>
</g>
<g>
	<g>
		<path d="M41.4,18.26c0.59-0.69,1.21-1.35,1.86-1.98c0.55-0.53,1.14-1.18,1.72-1.33c0.7-0.19,1.41,0.01,2.23,0.25
			c0.91,0.27,1.82,0.56,2.72,0.84c0.75,0.23,1.67-0.27,1.85-1.05c0.19-0.81-0.24-1.6-1.05-1.85c-2.03-0.63-4.4-1.72-6.55-1.09
			c-1.07,0.32-1.92,1.04-2.72,1.79c-0.77,0.73-1.5,1.5-2.19,2.3c-0.53,0.61-0.6,1.52,0,2.12C39.82,18.8,40.87,18.88,41.4,18.26
			L41.4,18.26z"/>
	</g>
</g>
<g>
	<g>
		<path d="M50.39,18.1c0.03,0.06,0.06,0.11,0.08,0.17c0.09,0.17,0.22,0.32,0.39,0.42c0.14,0.13,0.31,0.22,0.51,0.27
			c0.2,0.06,0.4,0.07,0.6,0.03c0.2-0.01,0.39-0.07,0.56-0.18c0.1-0.08,0.2-0.16,0.3-0.23c0.19-0.19,0.31-0.41,0.39-0.66
			c0.02-0.13,0.04-0.27,0.05-0.4c0-0.27-0.07-0.52-0.2-0.76c-0.03-0.06-0.06-0.11-0.08-0.17c-0.09-0.17-0.22-0.32-0.39-0.42
			c-0.14-0.13-0.31-0.22-0.51-0.27c-0.2-0.06-0.4-0.07-0.6-0.03c-0.2,0.01-0.39,0.07-0.56,0.18c-0.1,0.08-0.2,0.16-0.3,0.23
			c-0.19,0.19-0.31,0.41-0.39,0.66c-0.02,0.13-0.04,0.27-0.05,0.4C50.19,17.61,50.26,17.86,50.39,18.1L50.39,18.1z"/>
	</g>
</g>
<g>
	<g>
		<path d="M50.44,18.69c0.49,1.5,0.67,3.01,0.53,4.59c-0.11,1.25-0.49,2.86-1.22,3.69c-0.39,0.44-0.89,0.69-1.42,0.89
			c-0.66,0.25-1.35,0.46-2.05,0.59c-1.2,0.23-2.5,0.17-3.54-0.46c-0.7-0.42-1.65-0.16-2.05,0.54c-0.41,0.71-0.16,1.64,0.54,2.05
			c1.68,1,3.61,1.13,5.51,0.83c1.73-0.28,3.77-0.9,5.02-2.18c1.39-1.42,1.92-3.53,2.16-5.45c0.25-1.97,0.04-3.99-0.58-5.88
			c-0.25-0.77-1.04-1.27-1.85-1.05C50.73,17.05,50.19,17.91,50.44,18.69L50.44,18.69z"/>
	</g>
</g>
<g>
	<g>
		<path d="M42.4,28.12c0.53-0.17,1.06-0.34,1.6-0.51c0.37-0.12,0.7-0.35,0.9-0.69c0.11-0.17,0.17-0.36,0.18-0.56
			c0.04-0.2,0.04-0.4-0.03-0.6c-0.12-0.36-0.34-0.71-0.69-0.9c-0.35-0.18-0.77-0.28-1.16-0.15c-0.53,0.17-1.06,0.34-1.6,0.51
			c-0.37,0.12-0.7,0.35-0.9,0.69c-0.11,0.17-0.17,0.36-0.18,0.56c-0.04,0.2-0.04,0.4,0.03,0.6c0.12,0.36,0.34,0.71,0.69,0.9
			C41.59,28.16,42.02,28.25,42.4,28.12L42.4,28.12z"/>
	</g>
</g>
<g>
	<g>
		<path d="M43.69,28.52c0.07-0.01,0.14-0.01,0.2,0c-0.13-0.02-0.27-0.04-0.4-0.05c0.07,0.01,0.14,0.03,0.21,0.06
			c-0.12-0.05-0.24-0.1-0.36-0.15c0.07,0.03,0.14,0.07,0.2,0.12c-0.1-0.08-0.2-0.16-0.3-0.23c0.05,0.04,0.1,0.09,0.15,0.14
			c-0.08-0.1-0.16-0.2-0.23-0.3c0.03,0.04,0.05,0.07,0.07,0.11c0.09,0.17,0.22,0.32,0.39,0.42c0.14,0.13,0.31,0.22,0.51,0.27
			c0.2,0.06,0.4,0.07,0.6,0.03c0.2-0.01,0.39-0.07,0.56-0.18c0.1-0.08,0.2-0.16,0.3-0.23c0.19-0.19,0.31-0.41,0.39-0.66
			c0.02-0.13,0.04-0.27,0.05-0.4c0-0.27-0.07-0.52-0.2-0.76c-0.02-0.04-0.05-0.08-0.07-0.11c-0.09-0.11-0.17-0.23-0.27-0.34
			c-0.01-0.02-0.03-0.03-0.05-0.05c-0.02-0.02-0.03-0.03-0.05-0.04c-0.11-0.09-0.23-0.18-0.34-0.26c-0.04-0.03-0.07-0.05-0.11-0.07
			c-0.02-0.01-0.04-0.02-0.05-0.03c-0.13-0.06-0.27-0.12-0.41-0.17c-0.04-0.01-0.08-0.03-0.12-0.03c-0.17-0.03-0.34-0.06-0.52-0.07
			c-0.04,0-0.09,0-0.13,0.01c-0.21-0.01-0.4,0.04-0.58,0.13c-0.19,0.06-0.35,0.16-0.48,0.31c-0.15,0.14-0.25,0.3-0.31,0.48
			c-0.09,0.18-0.14,0.37-0.13,0.58c0.02,0.13,0.04,0.27,0.05,0.4c0.07,0.25,0.2,0.47,0.39,0.66c0.1,0.08,0.2,0.16,0.3,0.23
			C43.16,28.45,43.42,28.52,43.69,28.52L43.69,28.52z"/>
	</g>
</g>
<g>
	<g>
		<path d="M41.08,21.79c0.96-0.03,1.92,0,2.87,0.12c0.27,0.04-0.18-0.03,0.09,0.01c0.11,0.02,0.22,0.03,0.33,0.06
			c0.16,0.03,0.33,0.07,0.48,0.13c-0.13-0.05-0.15-0.08-0.03,0.01c-0.01-0.01-0.27-0.28-0.16-0.15c0.25,0.28,0.39,0.56,0.74,0.74
			c0.66,0.35,1.43,0.32,2.05-0.11c0.43-0.3,0.82-0.66,1.21-1.01c0.72-0.64,1.41-1.31,2.08-2.01c0.54-0.57,0.61-1.56,0-2.12
			c-0.59-0.54-1.54-0.61-2.12,0c-0.48,0.51-0.97,1-1.48,1.47c-0.24,0.22-0.47,0.43-0.72,0.65c-0.12,0.11-0.24,0.21-0.37,0.31
			c-0.08,0.07-0.16,0.14-0.25,0.21c0.21-0.16,0.46-0.2,0.75-0.13c0.22,0.13,0.44,0.26,0.66,0.39c-0.1-0.09-0.11-0.1-0.04-0.01
			c0.06,0.08,0.06,0.08,0.01,0.01c-0.14-0.05-0.23-0.32-0.35-0.44c-0.2-0.2-0.45-0.38-0.7-0.5c-0.49-0.24-0.99-0.35-1.52-0.42
			c-1.17-0.16-2.33-0.25-3.51-0.21c-0.78,0.03-1.54,0.67-1.5,1.5C39.62,21.08,40.24,21.82,41.08,21.79L41.08,21.79z"/>
	</g>
</g>
<g>
	<g>
		<path d="M27.52,9.95c-2.99-0.29-6.29-0.28-8.5,2.09c-2,2.16-2.6,5.32-2.33,8.17c0.15,1.55,0.38,3.49,1.42,4.72
			c1.06,1.26,3.02,1.3,4.55,1.28c2.9-0.05,6.53-0.95,8.44-3.32c1.25-1.56,1.35-3.44,1.07-5.35c-0.27-1.81-0.78-3.59-1.46-5.29
			c-0.33-0.82-1.33-1.51-2.2-0.9c-1.94,1.36-3.81,2.83-5.59,4.4c-0.61,0.54-0.55,1.57,0,2.12c0.6,0.6,1.51,0.54,2.12,0
			c1.59-1.4,3.25-2.71,4.98-3.93c-0.73-0.3-1.47-0.6-2.2-0.9c0.49,1.23,0.89,2.5,1.18,3.79c0.23,1.04,0.52,2.25,0.22,3.3
			c-0.56,2-3.54,2.75-5.32,2.98c-0.57,0.07-1.14,0.09-1.71,0.08c-0.48-0.01-1.31,0.06-1.74-0.19c-0.18-0.1-0.23-0.36-0.3-0.6
			c-0.2-0.64-0.35-1.3-0.43-1.97c-0.25-2.04-0.08-4.41,1.24-6.09c1.52-1.93,4.33-1.63,6.56-1.42c0.81,0.08,1.5-0.74,1.5-1.5
			C29.02,10.57,28.33,10.03,27.52,9.95L27.52,9.95z"/>
	</g>
</g>
<g>
	<g>
		<path d="M18.55,7.04c-0.95,1.94-2.3,3.59-2.94,5.68c-0.66,2.14-0.76,4.46-0.56,6.68c0.4,4.54,1.78,8.94,3.89,12.98
			c0.55,1.06,2,0.88,2.59,0c1.19-1.77,2.64-3.29,4.31-4.61c1.16-0.91-0.1-3.04-1.46-2.51c-1.32,0.52-2.63,1.03-3.95,1.55
			c-1.78,0.7-1,3.6,0.8,2.89c1.32-0.52,2.63-1.03,3.95-1.55c-0.49-0.84-0.97-1.67-1.46-2.51c-1.87,1.48-3.45,3.23-4.78,5.21
			c0.86,0,1.73,0,2.59,0c-1.85-3.54-3.13-7.47-3.48-11.46c-0.17-1.91-0.13-3.84,0.4-5.69c0.55-1.91,1.83-3.4,2.69-5.16
			C21.98,6.82,19.4,5.3,18.55,7.04L18.55,7.04z"/>
	</g>
</g>
<g>
	<g>
		<path d="M20.48,8.52c2.57-0.62,5.26-0.47,7.73,0.51c1.13,0.45,2.15,1.09,3.36,1.31c1.38,0.25,2.74,0.06,4.12-0.13
			c1.29-0.18,1.43-2.19,0.36-2.74c-1.65-0.85-3.36-1.32-5.21-1.43c0,1,0,2,0,3C31.72,9.02,32.6,9,33.49,8.99
			c0.4-0.01,0.8-0.02,1.2-0.02c0.16,0,0.32-0.01,0.48-0.01c0.77,0.11,0.72-0.17-0.15-0.84c0.15-0.35,0.29-0.71,0.44-1.06
			c-0.06,0.05-0.12,0.1-0.18,0.15c-0.82,0.68-0.42,2.34,0.66,2.51c2.5,0.39,4.72-0.92,7.18-0.7c0-1,0-2,0-3
			c-1.82,0.15-3.65,0.18-5.47,0.11c0.13,0.98,0.27,1.96,0.4,2.95c3.02-0.57,6.09-0.52,9.15-0.44c0.76,0.02,8.74,0.25,8.74-0.2
			c-0.01,1.93,2.99,1.93,3,0c0.01-1.81-1.49-2.87-3.2-2.92c-2.03-0.05-4.09,0.21-6.13,0.18c-4.14-0.08-8.26-0.29-12.36,0.49
			c-1.72,0.33-1.23,2.88,0.4,2.95c1.83,0.07,3.65,0.03,5.47-0.11c1.93-0.16,1.92-2.83,0-3c-2.17-0.2-4.26,1.13-6.38,0.81
			c0.22,0.84,0.44,1.67,0.66,2.51c1.27-1.05,0.51-2.94-0.94-3.3c-0.78-0.19-1.7-0.06-2.49-0.05C32.92,6,31.88,6.02,30.84,6.04
			c-1.94,0.04-1.92,2.88,0,3c1.31,0.08,2.54,0.42,3.7,1.02c0.12-0.91,0.24-1.83,0.36-2.74c-1.4,0.19-2.66,0.26-3.97-0.33
			c-1.17-0.52-2.31-1.06-3.56-1.38c-2.53-0.63-5.14-0.6-7.67,0.01C17.81,6.07,18.61,8.97,20.48,8.52L20.48,8.52z"/>
	</g>
</g>
<g>
	<g>
		<path d="M51.09,9.18c0.27,0,0.54,0.02,0.8,0.05c0.07,0.01,0.13,0.01,0.2,0.02c-0.23-0.03-0.27-0.04-0.1-0.01
			c0.13,0.02,0.26,0.04,0.4,0.07c0.53,0.11,1.04,0.26,1.55,0.45c0.06,0.02,0.13,0.05,0.19,0.07c-0.2-0.09-0.23-0.1-0.08-0.03
			c0.12,0.06,0.24,0.11,0.36,0.17c0.24,0.12,0.47,0.25,0.7,0.39c0.23,0.14,0.45,0.3,0.67,0.45c0.13,0.1,0.11,0.08-0.06-0.05
			c0.05,0.04,0.1,0.08,0.16,0.13c0.1,0.09,0.2,0.17,0.3,0.26c0.58,0.53,1.55,0.62,2.12,0c0.53-0.57,0.62-1.56,0-2.12
			c-1.98-1.79-4.53-2.82-7.21-2.86c-0.78-0.01-1.54,0.7-1.5,1.5C49.63,8.51,50.25,9.17,51.09,9.18L51.09,9.18z"/>
	</g>
</g>
<g>
	<g>
		<path d="M44.87,30.3c0.51-0.04,1.02-0.08,1.53-0.14c0.27,0,0.52-0.07,0.76-0.2c0.17-0.09,0.32-0.22,0.42-0.39
			c0.27-0.35,0.44-0.87,0.27-1.31c-0.19-0.48-0.41-0.9-0.79-1.26c-0.28-0.27-0.6-0.51-0.95-0.67c-0.39-0.18-0.78-0.32-1.21-0.39
			c-0.46-0.08-0.91-0.12-1.37-0.15c-0.37-0.03-0.81,0.19-1.06,0.44c-0.26,0.26-0.46,0.69-0.44,1.06c0.02,0.39,0.14,0.79,0.44,1.06
			c0.3,0.28,0.65,0.41,1.06,0.44c0.26,0.02,0.53,0.04,0.79,0.07c-0.13-0.02-0.27-0.04-0.4-0.05c0.34,0.05,0.68,0.12,0.99,0.25
			c-0.12-0.05-0.24-0.1-0.36-0.15c0.19,0.08,0.36,0.18,0.53,0.31c-0.1-0.08-0.2-0.16-0.3-0.23c0.12,0.1,0.24,0.21,0.34,0.33
			c-0.08-0.1-0.16-0.2-0.23-0.3c0.09,0.12,0.16,0.24,0.22,0.37c-0.05-0.12-0.1-0.24-0.15-0.36c0.01,0.01,0.01,0.03,0.02,0.04
			c0.48-0.63,0.96-1.27,1.45-1.9c-0.51,0.06-1.02,0.11-1.53,0.14c-0.4,0.03-0.77,0.15-1.06,0.44c-0.26,0.26-0.46,0.69-0.44,1.06
			c0.02,0.39,0.14,0.79,0.44,1.06C44.09,30.12,44.47,30.33,44.87,30.3L44.87,30.3z"/>
	</g>
</g>
<g>
	<g>
		<path d="M38.82,49.1c-0.79-0.36-1.55-0.77-2.29-1.22c-0.33-0.2-0.79-0.25-1.16-0.15c-0.35,0.1-0.73,0.36-0.9,0.69
			c-0.18,0.35-0.28,0.77-0.15,1.16c0.12,0.38,0.35,0.69,0.69,0.9c0.74,0.45,1.51,0.86,2.29,1.22c0.17,0.11,0.36,0.17,0.56,0.18
			c0.2,0.04,0.4,0.04,0.6-0.03c0.35-0.1,0.73-0.36,0.9-0.69c0.18-0.35,0.28-0.77,0.15-1.16C39.39,49.64,39.17,49.26,38.82,49.1
			L38.82,49.1z"/>
	</g>
</g>
<g>
	<g>
		<path d="M20.61,30.9c-1.42,2.01-2.64,4.62-2.65,7.13c-0.01,2.73,2.04,4.43,4.62,4.71c1.31,0.14,2.66-0.06,3.97-0.11
			c1.53-0.06,3.06-0.07,4.59-0.01c2.8,0.1,5.55,0.41,8.32-0.18c1.89-0.41,1.09-3.3-0.8-2.89c-2.16,0.47-4.39,0.23-6.58,0.12
			c-2.35-0.12-4.71-0.1-7.06,0.05c-1.45,0.09-4.05,0.43-4.06-1.68c-0.01-1.98,1.14-4.05,2.24-5.61
			C24.32,30.83,21.71,29.33,20.61,30.9L20.61,30.9z"/>
	</g>
</g>
<g>
	<g>
		<path d="M36.66,22.6c-2.87-1.63-6.24-0.7-8.81,1.07c-1.23,0.85-2.4,1.81-3.52,2.8c-1.1,0.96-2.12,2.07-2.72,3.42
			c-0.33,0.74-0.21,1.61,0.54,2.05c0.64,0.37,1.72,0.2,2.05-0.54c0.92-2.06,3.01-3.58,4.79-4.87c1.71-1.24,4.08-2.51,6.15-1.33
			C36.83,26.15,38.34,23.56,36.66,22.6L36.66,22.6z"/>
	</g>
</g>
<g>
	<g>
		<path d="M35.67,56.23c0.15-3.74-0.64-7.51-2.33-10.84c-0.86-1.69-2.14-2.71-3.87-3.42c-1.86-0.77-3.75-1.45-5.62-2.17
			c-0.76-0.29-1.65,0.32-1.85,1.05c-0.23,0.85,0.29,1.55,1.05,1.85c1.65,0.63,3.29,1.26,4.94,1.9c0.59,0.23,1.22,0.46,1.72,0.85
			c0.54,0.43,0.86,1.07,1.15,1.68c1.37,2.82,1.94,5.99,1.82,9.11C32.6,58.16,35.6,58.16,35.67,56.23L35.67,56.23z"/>
	</g>
</g>
<g>
	<g>
		<path d="M37.32,42.48c1.1,0.23,2.22,0.06,3.21-0.49c0.97-0.55,1.67-1.43,2.05-2.47c0.13-0.35,0.03-0.84-0.15-1.16
			c-0.18-0.31-0.54-0.61-0.9-0.69c-0.38-0.09-0.81-0.07-1.16,0.15c-0.34,0.22-0.55,0.51-0.69,0.9c-0.02,0.06-0.04,0.12-0.07,0.17
			c0.05-0.12,0.1-0.24,0.15-0.36c-0.09,0.21-0.21,0.41-0.35,0.6c0.08-0.1,0.16-0.2,0.23-0.3c-0.16,0.21-0.35,0.39-0.56,0.56
			c0.1-0.08,0.2-0.16,0.3-0.23c-0.21,0.16-0.44,0.29-0.69,0.4c0.12-0.05,0.24-0.1,0.36-0.15c-0.26,0.11-0.53,0.18-0.81,0.22
			c0.13-0.02,0.27-0.04,0.4-0.05c-0.25,0.03-0.49,0.03-0.74,0c0.13,0.02,0.27,0.04,0.4,0.05c-0.06-0.01-0.12-0.02-0.18-0.03
			c-0.4-0.08-0.8-0.06-1.16,0.15c-0.31,0.18-0.61,0.54-0.69,0.9c-0.09,0.38-0.07,0.81,0.15,1.16C36.63,42.11,36.94,42.4,37.32,42.48
			L37.32,42.48z"/>
	</g>
</g>
<g>
	<g>
		<path d="M25.86,6.88c-1,0.13-2,0.01-3,0.05c-1.03,0.04-2.06,0.25-2.95,0.79c-0.55,0.33-0.89,1.06-0.69,1.69
			c0.19,0.58,0.78,1.17,1.45,1.1c1.53-0.17,3.06-0.29,4.59-0.36c0.74-0.03,1.49-0.08,2.23-0.07c0.09,0,0.18,0,0.27,0.01
			c-0.04,0-0.09-0.01-0.13-0.01c-0.09-0.03-0.16-0.08-0.22-0.15c0.06,0.05,0.12,0.11,0.18,0.16c0.36,0.32,0.69,0.54,1.15,0.7
			c0.74,0.26,1.67-0.3,1.85-1.05c0.19-0.84-0.25-1.56-1.05-1.85c0.1,0.02,0.19,0.07,0.27,0.15c-0.06-0.05-0.12-0.11-0.18-0.16
			c-0.15-0.13-0.32-0.27-0.49-0.39c-0.41-0.27-0.89-0.38-1.37-0.41c-0.77-0.06-1.57,0.02-2.34,0.05c-1.59,0.07-3.18,0.19-4.76,0.37
			c0.25,0.93,0.5,1.86,0.76,2.8c0.08-0.05,0.16-0.09,0.24-0.14c0.11-0.06,0.16-0.06,0.02-0.01c0.18-0.06,0.35-0.11,0.53-0.15
			c0.09-0.02,0.18-0.03,0.27-0.05c-0.15,0.03-0.11,0.01,0.02,0c0.21-0.02,0.42-0.03,0.63-0.03c0.91-0.01,1.81,0.07,2.72-0.04
			c0.78-0.1,1.54-0.62,1.5-1.5C27.32,7.65,26.69,6.77,25.86,6.88L25.86,6.88z"/>
	</g>
</g>
<g>
	<g>
		<path d="M26.98,9.39c4.68,2.27,9.73,1.6,14.69,0.83c2.58-0.4,5.18-0.76,7.79-0.54c2.61,0.22,5.14,1.06,7.43,2.33
			c1.69,0.93,3.21-1.66,1.51-2.59c-4.61-2.55-9.6-3.17-14.78-2.49C38.7,7.57,33.21,9.1,28.49,6.8C26.76,5.96,25.24,8.55,26.98,9.39
			L26.98,9.39z"/>
	</g>
</g>
<linearGradient id="SVGID_2_" gradientUnits="userSpaceOnUse" x1="38.9137" y1="51.3209" x2="41.2078" y2="51.3209">
	<stop  offset="6.073680e-07" style="stop-color:#4846FF"/>
	<stop  offset="1" style="stop-color:#010077"/>
</linearGradient>
<linearGradient id="SVGID_3_" gradientUnits="userSpaceOnUse" x1="38.4137" y1="51.3209" x2="41.7078" y2="51.3209">
	<stop  offset="6.073680e-07" style="stop-color:#4846FF"/>
	<stop  offset="1" style="stop-color:#010077"/>
</linearGradient>
<circle class="st3" cx="40.06" cy="51.32" r="1.15"/>
<linearGradient id="SVGID_4_" gradientUnits="userSpaceOnUse" x1="45.8132" y1="50.9159" x2="48.3803" y2="50.9159">
	<stop  offset="6.073680e-07" style="stop-color:#4846FF"/>
	<stop  offset="1" style="stop-color:#010077"/>
</linearGradient>
<linearGradient id="SVGID_5_" gradientUnits="userSpaceOnUse" x1="45.3132" y1="50.9159" x2="48.8803" y2="50.9159">
	<stop  offset="6.073680e-07" style="stop-color:#4846FF"/>
	<stop  offset="1" style="stop-color:#010077"/>
</linearGradient>
<circle class="st4" cx="47.1" cy="50.92" r="1.28"/>
<linearGradient id="SVGID_6_" gradientUnits="userSpaceOnUse" x1="53.2576" y1="50.4292" x2="55.7733" y2="50.4292">
	<stop  offset="6.073680e-07" style="stop-color:#4846FF"/>
	<stop  offset="1" style="stop-color:#010077"/>
</linearGradient>
<linearGradient id="SVGID_7_" gradientUnits="userSpaceOnUse" x1="52.7576" y1="50.4292" x2="56.2733" y2="50.4292">
	<stop  offset="6.073680e-07" style="stop-color:#4846FF"/>
	<stop  offset="1" style="stop-color:#010077"/>
</linearGradient>
<circle class="st5" cx="54.52" cy="50.43" r="1.26"/>
</svg>
