<?xml version="1.0" encoding="utf-8"?>
<!-- Generator: Adobe Illustrator 24.0.1, SVG Export Plug-In . SVG Version: 6.00 Build 0)  -->
<svg version="1.1" id="Layer_1" xmlns="http://www.w3.org/2000/svg" xmlns:xlink="http://www.w3.org/1999/xlink" x="0px" y="0px"
	 viewBox="0 0 64 64" style="enable-background:new 0 0 64 64;" xml:space="preserve">
<style type="text/css">
	.st0{fill:#2D2D2D;stroke:#2D2D2D;stroke-miterlimit:10;}
	.st1{fill:#00B6BF;stroke:#00B6BF;stroke-miterlimit:10;}
	.st2{fill:#008D93;stroke:#008D93;stroke-width:0.25;stroke-miterlimit:10;}
	.st3{fill:#00CDD8;stroke:#00CDD8;stroke-width:0.25;stroke-miterlimit:10;}
</style>
<path class="st0" d="M51.87,56.76H13.26c-3.42,0-6.2-2.77-6.2-6.2V11.95c0-3.42,2.77-6.2,6.2-6.2h38.61c3.42,0,6.2,2.77,6.2,6.2
	v38.61C58.07,53.99,55.3,56.76,51.87,56.76z"/>
<path class="st1" d="M16.88,44.09c-0.15-0.27-0.35-0.81,0.69-4.02c0.43-1.33,0.65-1.99,1.11-3.05c1.99-4.56-0.08-8.46,2.01-13.71
	c0.39-0.99,1.47-3.37,3.81-5.47c1.18-1.06,4.5-3.69,9.35-3.74c1.06-0.01,5.72-0.06,9.07,3.32c1.4,1.41,2.01,2.86,2.49,4.02
	c1.22,2.95,1.25,6.04,1.25,12.12c0,4-0.23,5.05,0.62,6.58c0.47,0.85,1.43,2.11,0.97,2.91c-0.2,0.35-0.61,0.5-1.11,0.69
	c-1.13,0.42-1.57,0.1-2.22,0.35c-1.27,0.48-0.73,2.18-2.08,3.25c-1.09,0.87-2.88,0.9-4.09,0.35c-1.27-0.59-1.19-1.5-2.56-1.94
	c-1.18-0.38-2.29-0.02-2.56,0.07c-0.79,0.26-0.85,0.54-2.08,1.32c-1.52,0.96-2.28,1.43-3.05,1.25c-0.61-0.15-0.58-0.54-2.01-1.94
	c-0.91-0.89-1.37-1.34-1.87-1.52c-1.22-0.45-1.85,0.37-3.67,0.48C20.71,45.42,17.72,45.57,16.88,44.09z"/>
<path class="st2" d="M43.95,47.36c-0.6,0.7-0.79,0.92-1.16,1.2c-0.29,0.22-0.62,0.46-1.09,0.6c-0.19,0.06-0.8,0.21-1.53,0
	c-0.48-0.14-0.75-0.37-1.46-0.94c-1.97-1.6-2.19-1.68-2.4-1.72c-0.57-0.1-1.06,0.16-2.04,0.69c-1.19,0.64-1.32,1-2.64,1.84
	c-1.29,0.83-2.18,1.38-2.97,0.99c-0.13-0.07-0.19-0.12-0.87-0.94c-1.51-1.81-1.53-1.9-1.82-2.14c-0.96-0.78-2.01-0.84-2.4-0.86
	c-1.63-0.08-2.44,0.84-2.77,0.43c-0.37-0.47,0.23-2.16,1.24-3.26c1.26-1.36,2.88-1.49,3.86-1.54c2.81-0.17,3.06,1.18,6.12,1.2
	c1.55,0.01,2.96,0.02,4.44-0.94c1.24-0.8,1.84-1.84,2.48-1.54c0.59,0.27,0.4,1.31,1.38,2.92c0.5,0.81,0.79,1.3,1.31,1.46
	c1.15,0.36,1.95-1.3,2.91-0.86c0.51,0.23,0.86,0.96,0.83,1.53C45.34,45.78,45.21,45.9,43.95,47.36z"/>
<path class="st3" d="M28.81,21.96c-1.04,0.27-1.59,1.12-1.66,1.25c-0.66,1.08-0.54,2.63,0.35,3.6c1,1.09,2.64,1.06,3.6,0.69
	c0.96-0.37,1.12-1.02,1.94-1.04c0.85-0.02,1.02,0.66,2.01,0.97c1.23,0.38,3-0.04,3.88-1.32c0.09-0.14,0.86-1.3,0.42-2.63
	c-0.42-1.25-1.63-1.89-2.56-2.01c-0.44-0.06-1.03,0.1-2.22,0.42c-1.66,0.44-1.49,0.56-2.08,0.62C30.75,22.71,30.2,21.6,28.81,21.96z
	"/>
</svg>
