<?xml version="1.0" encoding="utf-8"?>
<!-- Generator: Adobe Illustrator 24.0.1, SVG Export Plug-In . SVG Version: 6.00 Build 0)  -->
<svg version="1.1" id="Layer_1" xmlns="http://www.w3.org/2000/svg" xmlns:xlink="http://www.w3.org/1999/xlink" x="0px" y="0px"
	 viewBox="0 0 64 64" style="enable-background:new 0 0 64 64;" xml:space="preserve">
<style type="text/css">
	.st0{fill:#008E09;stroke:#000000;stroke-miterlimit:10;}
	.st1{fill:#94DD8E;stroke:#5AE856;stroke-miterlimit:10;}
	.st2{font-family:'ArialMT';}
	.st3{font-size:22.7902px;}
	.st4{stroke:#000000;stroke-miterlimit:10;}
</style>
<rect x="5.96" y="5.2" class="st0" width="54.71" height="54.71"/>
<path class="st1" d="M48.04,59.01c-1.6-2.27-3.21-4.54-4.81-6.81l-21.9-2.67l17.35-20.97c-2.64-7.44-5.29-14.87-7.93-22.31
	c2.24,0,4.47,0,6.71,0l16.13,7.82l6.24-7.28v52.24H48.04z"/>
<text transform="matrix(0.8103 0 0 1 10.1832 53.7075)" class="st2 st3">szs</text>
<ellipse transform="matrix(0.5759 -0.8175 0.8175 0.5759 -5.8984 53.7439)" class="st4" cx="48.85" cy="32.56" rx="2.34" ry="7.95"/>
<ellipse transform="matrix(0.5759 -0.8175 0.8175 0.5759 5.982 53.8185)" class="st4" cx="54.86" cy="21.14" rx="2.34" ry="6.29"/>
</svg>
