<svg width="510" height="477" viewBox="0 0 510 477" fill="none" xmlns="http://www.w3.org/2000/svg">
<g clip-path="url(#clip0_1_3)">
<path d="M183.34 125.53H175.59V133.27H183.34V125.53Z" fill="#8F8F8F"/>
<path d="M183.34 191.38H175.59V199.12H183.34V191.38Z" fill="#8F8F8F"/>
<path d="M183.34 157.81H175.59V165.55H183.34V157.81Z" fill="#8F8F8F"/>
<path d="M269.85 95.83H175.59V103.58H269.85V95.83Z" fill="#8F8F8F"/>
<path d="M269.85 125.53H187.22V133.27H269.85V125.53Z" fill="#8F8F8F"/>
<path d="M269.85 157.81H187.22V165.55H269.85V157.81Z" fill="#8F8F8F"/>
<path d="M269.85 191.38H187.22V199.12H269.85V191.38Z" fill="#8F8F8F"/>
<path d="M276.3 72.59C278.012 72.59 279.653 73.2692 280.864 74.4786C282.076 75.6879 282.757 77.3284 282.76 79.04V212.04C282.757 213.753 282.076 215.394 280.865 216.605C279.654 217.816 278.012 218.497 276.3 218.5H167.85C166.138 218.497 164.496 217.816 163.285 216.605C162.074 215.394 161.393 213.753 161.39 212.04V79.04C161.393 77.3284 162.074 75.6879 163.286 74.4786C164.497 73.2692 166.138 72.59 167.85 72.59H276.3ZM276.3 67.42H167.85C164.768 67.42 161.813 68.6442 159.633 70.8234C157.454 73.0026 156.23 75.9582 156.23 79.04V212.04C156.23 215.122 157.454 218.077 159.633 220.257C161.813 222.436 164.768 223.66 167.85 223.66H276.3C279.382 223.66 282.337 222.436 284.517 220.257C286.696 218.077 287.92 215.122 287.92 212.04V79.04C287.92 75.9582 286.696 73.0026 284.517 70.8234C282.337 68.6442 279.382 67.42 276.3 67.42Z" fill="#8F8F8F"/>
<path d="M183.34 306.29H175.59V314.03H183.34V306.29Z" fill="#8F8F8F"/>
<path d="M183.34 338.56H175.59V346.31H183.34V338.56Z" fill="#8F8F8F"/>
<path d="M183.34 372.13H175.59V379.88H183.34V372.13Z" fill="#8F8F8F"/>
<path d="M269.85 276.59H175.59V284.34H269.85V276.59Z" fill="#8F8F8F"/>
<path d="M269.85 306.35H187.22V313.97H269.85V306.35Z" fill="#8F8F8F"/>
<path d="M269.85 372.19H187.22V379.82H269.85V372.19Z" fill="#8F8F8F"/>
<path d="M269.85 338.62H187.22V346.25H269.85V338.62Z" fill="#8F8F8F"/>
<path d="M276.3 253.35C278.012 253.35 279.653 254.029 280.864 255.239C282.076 256.448 282.757 258.088 282.76 259.8V392.8C282.747 394.506 282.061 396.137 280.851 397.339C279.641 398.541 278.006 399.217 276.3 399.22H167.85C166.138 399.217 164.496 398.536 163.285 397.325C162.074 396.114 161.393 394.473 161.39 392.76V259.76C161.393 258.048 162.074 256.408 163.286 255.199C164.497 253.989 166.138 253.31 167.85 253.31H276.3V253.35ZM276.3 248.14H167.85C164.768 248.14 161.813 249.364 159.633 251.543C157.454 253.723 156.23 256.678 156.23 259.76V392.76C156.23 395.842 157.454 398.797 159.633 400.977C161.813 403.156 164.768 404.38 167.85 404.38H276.3C279.382 404.38 282.337 403.156 284.517 400.977C286.696 398.797 287.92 395.842 287.92 392.76V259.76C287.899 256.692 286.665 253.757 284.488 251.595C282.312 249.433 279.368 248.22 276.3 248.22V248.14Z" fill="#8F8F8F"/>
<path d="M344.73 146.19H306V152.64H344.73V323.07H306V329.53H344.73H351.19V323.07V152.64V146.19H344.73Z" fill="#8F8F8F"/>
<path d="M62.64 395.66C63.68 394.92 64.74 394.22 65.82 393.56C65.74 365.28 65.49 312.81 64.61 286.44C64.61 269.13 64.61 245.85 28.15 238.28C64.57 230.71 64.61 207.44 64.61 190.13C65.61 161.13 65.79 100.5 65.84 75.28C65.2 74.87 64.55 74.47 63.93 74.02C50.18 64.22 42.12 48.63 39.66 30.35C35.28 37.53 32.51 46.42 32.28 57.43C31.1 114.04 28.84 179.22 28.46 190.13C27.55 214.64 12.55 219.31 4.7 220.07C3.22 220.15 1.7 220.18 0 220.12V256.45C1.67 256.39 3.22 256.45 4.7 256.45C12.55 257.21 27.55 261.88 28.46 286.39C28.84 297.27 31.1 362.48 32.28 419.08C32.308 427.407 34.2442 435.618 37.94 443.08C39.74 423.22 47.94 406.22 62.64 395.66Z" fill="#EF312D"/>
<path d="M63.93 74.02C64.55 74.47 65.2 74.87 65.84 75.28C65.84 68.19 65.84 63.89 65.84 63.89C65.84 63.89 60.67 26.45 114.9 31.61V0.610002C114.9 0.610002 59.9 -2.87 39.65 30.34C42.12 48.63 50.18 64.22 63.93 74.02Z" fill="#F6AD53"/>
<path d="M114.91 475.94V444.94C60.68 450.1 65.85 412.66 65.85 412.66C65.85 412.66 65.85 405.13 65.85 393.54C64.77 394.207 63.71 394.907 62.67 395.64C47.94 406.22 39.74 423.22 37.94 443.16C56.61 479.64 114.91 475.94 114.91 475.94Z" fill="#F6AD53"/>
<path d="M505.3 219.55C497.45 218.78 482.45 214.12 481.54 189.61C481.16 178.73 478.9 113.52 477.72 56.91C477.67 49.5649 476.168 42.3022 473.3 35.54C470.58 53.05 462.6 67.94 449.3 77.47C447.652 78.628 445.943 79.6962 444.18 80.67C444.25 108.46 444.49 162.67 445.39 189.61C445.39 206.92 445.39 230.19 481.85 237.76C445.43 245.33 445.39 268.61 445.39 285.92C444.49 312.97 444.24 367.48 444.18 395.17C446.404 396.332 448.545 397.645 450.59 399.1C463.14 408.1 470.95 421.85 474.09 438.1C476.432 431.87 477.661 425.276 477.72 418.62C478.9 362.02 481.16 296.81 481.54 285.93C482.45 261.42 497.45 256.75 505.3 255.99C506.78 255.91 508.3 255.88 510 255.94V219.6C508.33 219.66 506.78 219.63 505.3 219.55Z" fill="#EF312D"/>
<path d="M473.3 35.54C456.17 -3.78 395.09 0.100001 395.09 0.100001V31.1C449.32 25.94 444.15 63.38 444.15 63.38C444.15 63.38 444.15 70.13 444.15 80.68C445.913 79.7062 447.622 78.638 449.27 77.48C462.6 67.94 470.58 53.05 473.3 35.54Z" fill="#F6AD53"/>
<path d="M450.59 399.1C448.545 397.645 446.404 396.332 444.18 395.17C444.18 405.54 444.18 412.17 444.18 412.17C444.18 412.17 449.35 449.61 395.12 444.45V475.45C395.12 475.45 458.12 479.45 474.12 438.12C471 421.85 463.14 408.09 450.59 399.1Z" fill="#F6AD53"/>
</g>
<defs>
<clipPath id="clip0_1_3">
<rect width="510" height="476.05" fill="white"/>
</clipPath>
</defs>
</svg>
