<svg xmlns="http://www.w3.org/2000/svg" viewBox="0 0 64 64" width="64px" height="64px"><linearGradient id="pVl6bdv8xR2_oynBRXpQLa" x1="32" x2="32" y1="6" y2="58" gradientUnits="userSpaceOnUse" spreadMethod="reflect"><stop offset="0" stop-color="#1a6dff"/><stop offset="1" stop-color="#c822ff"/></linearGradient><path fill="none" stroke="url(#pVl6bdv8xR2_oynBRXpQLa)" stroke-miterlimit="10" stroke-width="2" d="M32 7A25 25 0 1 0 32 57A25 25 0 1 0 32 7Z"/><linearGradient id="pVl6bdv8xR2_oynBRXpQLb" x1="31.03" x2="31.03" y1="16" y2="48" gradientUnits="userSpaceOnUse" spreadMethod="reflect"><stop offset="0" stop-color="#6dc7ff"/><stop offset="1" stop-color="#e6abff"/></linearGradient><path fill="url(#pVl6bdv8xR2_oynBRXpQLb)" d="M13.125,36c-0.961-7.967,8.851-17.938,17.349-20c0,0-3.474,2.449-3.474,4.525 c0,4.154,1.971,2.745,1.971,2.745s0.039,14.986,0.039,16.057c0,1.071,0.985,1.673,2.365,1.673C32.755,41,36,39.25,36,39.25 s0-11.903,0-13.375s-1.644-2.822-2.438-3.515c2.123,0,3.088,0.737,3.088,0.737s2.756-3.643,9.919-5.557 C45.481,18.951,42,23.227,42,24.5s0,13.763,0,14.5s0.849,1,1.375,1c0.526,0,2.904-0.691,5.625-3.75c0,0.93-3.632,7.118-9.131,10.746 L36.25,44l-3.739,4c0,0-9.261-0.5-12.511-6c0.967,0.146,3,0.54,3-1s0-11.495,0-12.5S22.479,27,21.625,27 C20.771,27.001,17.747,27.685,13.125,36z"/></svg>