<?xml version="1.0" encoding="utf-8"?>
<!-- Generator: Adobe Illustrator 24.0.1, SVG Export Plug-In . SVG Version: 6.00 Build 0)  -->
<svg version="1.1" id="Layer_1" xmlns="http://www.w3.org/2000/svg" xmlns:xlink="http://www.w3.org/1999/xlink" x="0px" y="0px"
	 viewBox="0 0 64 64" style="enable-background:new 0 0 64 64;" xml:space="preserve">
<style type="text/css">
	.st0{fill:#FFFFFF;stroke:#BB00AF;stroke-width:0.5;stroke-miterlimit:10;}
	.st1{fill:#FFFFFF;stroke:#000000;stroke-width:0.5;stroke-miterlimit:10;}
	.st2{fill:#FFCEC7;stroke:#D29C90;stroke-width:0.5;stroke-miterlimit:10;}
	.st3{fill:#841A0F;stroke:#000000;stroke-width:0.5;stroke-miterlimit:10;}
	.st4{fill:url(#SVGID_1_);stroke:#A51119;stroke-width:0.5;stroke-miterlimit:10;}
	.st5{fill:url(#SVGID_2_);stroke:#000000;stroke-width:0.5;stroke-miterlimit:10;}
	.st6{fill:#FFCEC7;stroke:#000000;stroke-width:0.5;stroke-miterlimit:10;}
	.st7{stroke:#000000;stroke-width:0.5;stroke-miterlimit:10;}
</style>
<path class="st0" d="M55.03,59.91c-8.11,0-16.23,0-24.34,0c-6.78,0-13.55,0-20.33,0c-0.38,0-2.38-0.04-3.99-1.65
	c-1.02-1.02-1.65-2.43-1.65-3.99V9.6c0-3.12,2.53-5.64,5.64-5.64h44.67c3.12,0,5.64,2.53,5.64,5.64v44.67
	C60.67,57.38,58.14,59.91,55.03,59.91z"/>
<path class="st1" d="M20.92,55.8c-0.52-0.05-1.84-0.12-3.21,0.65c-1.99,1.1-2.54,3.09-2.64,3.47"/>
<path class="st2" d="M23.3,57.21c-1.74-0.3-3.54-2.14-3.29-3.48c0.35-1.85,4.33-1.2,5.2-3.38c0.67-1.68-1.17-3.3-3.78-8.44
	c-1.02-2.01-1.73-3.72-2.18-4.88c0.89-0.88,2.33-2.45,3.66-4.68c6.09-10.27,0.67-19.57,4.7-22.43c4.19-2.97,16.12,3.01,19.48,10.4
	c0.7,1.54,2.6,6.63,4,10.38c1.39,3.72,1.26,3.5,1.52,4.06c2.71,5.66,5.61,5.91,7.09,10.41c1.03,3.15,0.66,6.23,0.28,6.3
	c-0.2,0.04-0.35-0.79-1.17-1.54c-0.9-0.82-1.99-0.93-2.56-1.07c-1.58-0.41-6.27-0.56-12.63,3.14c-4.43,2.58-8.44,6.3-8.44,6.3
	c-2.4-1.85-4.24-2.16-5.51-2.06c-0.85,0.06-2.55,0.39-3.8,0.63C24.08,57.2,23.84,57.31,23.3,57.21z"/>
<path class="st2" d="M48.82,33.59c-0.04-0.12-0.61-1.69,0.33-2.89c0.38-0.48,0.86-0.72,1.16-0.83"/>
<path class="st2" d="M46.59,35.73c0.07,0.06,1.34,1.21,2.97,0.74c1.21-0.34,2.09-1.43,2.23-2.72"/>
<path class="st3" d="M37.83,11.76c-4.58-2.3-8.99,2.67-11.7,0.46c-1.3-1.06-1.69-3.33-1.04-4.8c0.73-1.64,2.76-2.32,3.17-2.46
	c0.39-0.13,0.94-0.23,2.06-0.41c1.9-0.31,2.85-0.47,3.96-0.5c1.26-0.03,1.23,0.12,3.8,0.25c0.98,0.05,1.66,0.06,2.89,0.08
	c0.89,0.02,2.69,0.04,5.28,0C48.4,4.34,49,4.3,49.87,4.29c0.53-0.01,0.89,0,1.1,0c1.53,0.02,3.61-0.21,5.48,0.36
	c0.66,0.2,1.54,0.47,2.35,1.25c0,0,2,1.91,1.82,5.74c0,0.02-0.01,0.21-0.02,0.47c-0.01,0.21-0.02,0.49-0.03,0.81
	c-0.01,0.39-0.02,0.72-0.03,1.45c-0.03,1.4-0.2,5.81-0.25,8.98c-0.07,4.3,0.15,4.17,0.1,10.1c-0.01,1.72,0,2.98,0,3.6
	c-0.01,3.26-0.05,5.5-0.07,6.72c-0.13,8.87,0.24,11-0.21,11.08c-1.09,0.21-3.84-12.2-7.11-19.2c-0.53-1.13-1.17-2.43-1.78-4.49
	c-0.89-3-0.67-4.55-2.59-8.18c-0.15-0.28-0.44-0.89-0.83-1.57c-1.08-1.88-2.19-3.18-3.11-4.25c-1.37-1.59-2.05-2.39-2.81-2.89
	c-0.63-0.42-1.34-0.77-3.06-1.87C38.24,12.03,37.95,11.82,37.83,11.76z"/>
<linearGradient id="SVGID_1_" gradientUnits="userSpaceOnUse" x1="19.4594" y1="47.841" x2="25.3887" y2="47.841">
	<stop  offset="6.073680e-07" style="stop-color:#87000B"/>
	<stop  offset="1" style="stop-color:#FF0005"/>
</linearGradient>
<path class="st4" d="M23.81,51.74c-1.79,1.9-3.51,2.13-3.8,1.99c-0.06-0.03-0.41-0.19-0.55-0.55c-0.2-0.5,2.69-2.62,2.94-4.74
	c0.27-2.24-3.02-3.63-2.48-5.28c0.23-0.69,0.98-1.05,1.5-1.24c0.72,1.11,1.74,2.67,3.01,4.68c0.59,0.94,1,1.6,0.94,2.5
	C25.32,50.14,24.71,50.78,23.81,51.74z"/>
<linearGradient id="SVGID_2_" gradientUnits="userSpaceOnUse" x1="35.2284" y1="25.719" x2="30.5253" y2="21.0159">
	<stop  offset="2.663895e-07" style="stop-color:#FFFFFF"/>
	<stop  offset="1" style="stop-color:#B300FF"/>
</linearGradient>
<path class="st5" d="M30.91,27.23c-1.72-3.71-0.3-7.16,1.49-7.76c1.54-0.51,4.06,0.87,5.45,3.63"/>
<path class="st6" d="M28.85,16.09c0.16-0.16,1.88-1.88,4.37-1.49c2.12,0.34,3.21,1.96,3.38,2.23"/>
<path class="st7" d="M37.59,25.83c-1.25,0.91-2.38,1.51-3.22,1.9c-2.19,1.01-2.86,0.79-3.14,0.66c-0.65-0.31-1.19-1.07-1.01-1.56
	c0.2-0.55,1.24-0.42,2.41-0.67c3.47-0.73,5.09-4.12,5.86-3.63c0.31,0.2,0.22,0.85,0.17,1.32C38.53,24.94,37.82,25.62,37.59,25.83z"
	/>
<path class="st7" d="M27.03,59.77c3.3-0.2,3.55-0.19,3.55-0.19c1.95,0.08,2.71,0.5,3.55-0.08c0.17-0.12,0.65-0.45,0.66-0.91
	c0.03-1.04-2.31-2.09-4.29-2.31c-2.04-0.23-4.51,0.33-4.7,1.32C25.63,58.43,27.03,59.77,27.03,59.77z"/>
<path class="st3" d="M52.77,24.54c0.24,1.65,0.82,2.72,1.32,3.39c0.52,0.71,0.85,0.87,3.19,2.98c1.6,1.44,1.81,1.7,2.01,2.01
	c0.82,1.3,0.89,2.72,0.83,3.67"/>
<path class="st3" d="M55.27,22.53c0.24-0.05,0.6-0.08,1.02,0c1.55,0.31,2.44,2.01,2.86,2.83c0.27,0.52,0.62,1.32,0.83,2.41"/>
<path class="st3" d="M43.15,4.72c0.54,0.74,1.24,1.62,2.15,2.56c0.44,0.46,1.47,1.5,2.98,2.63c0.65,0.49,1.61,1.21,2.98,1.94
	c1.99,1.07,3.68,1.53,4.16,1.66c1.8,0.48,3.45,0.63,4.85,0.62"/>
<path class="st3" d="M46.89,4.72c0.12,0.17,0.28,0.41,0.48,0.69c0.88,1.25,1.59,2.24,2.42,3.25c1.09,1.32,1.35,1.39,2.49,2.84
	c0.42,0.53,0.74,0.98,0.96,1.28"/>
<path class="st3" d="M35.95,5.55c1.25,0.08,3.11,0.4,4.78,1.66c1.11,0.84,1.66,1.74,2.49,3.05c2.37,3.71,3.56,5.56,4.22,6.3
	c1.38,1.56,4.08,3.19,9.97,2.98"/>
</svg>
